<?xml version="1.0" ?><svg id="Layer_1" style="enable-background:new 0 0 300 300;" version="1.1" viewBox="0 0 300 300" xml:space="preserve" xmlns="http://www.w3.org/2000/svg" xmlns:xlink="http://www.w3.org/1999/xlink"><style type="text/css">
	.st0{fill:none;stroke:#2D3642;stroke-width:20;stroke-linecap:round;stroke-linejoin:round;}
	.st1{fill:#E0D671;}
	.st2{fill:#168C84;}
</style><title/><g><g id="Layer_1-2"><rect class="st0" height="160" width="280" x="10" y="40"/><line class="st0" x1="100" x2="200" y1="260" y2="260"/><rect class="st0" height="60" width="40" x="130" y="200"/><path class="st1" d="M80,70c27.6,0,50,22.4,50,50s-22.4,50-50,50s-50-22.4-50-50c-0.1-27.6,22.2-49.9,49.8-50    C79.9,70,79.9,70,80,70z"/><path class="st2" d="M120,90c6.5,8.6,10,19.2,10,30H80L120,90z"/><line class="st0" x1="160" x2="260" y1="90" y2="90"/><line class="st0" x1="160" x2="240" y1="120" y2="120"/><line class="st0" x1="160" x2="260" y1="150" y2="150"/></g></g></svg>