<?xml version="1.0" ?><svg height="512" id="svg2" version="1.1" width="512" xmlns="http://www.w3.org/2000/svg" xmlns:cc="http://creativecommons.org/ns#" xmlns:dc="http://purl.org/dc/elements/1.1/" xmlns:inkscape="http://www.inkscape.org/namespaces/inkscape" xmlns:rdf="http://www.w3.org/1999/02/22-rdf-syntax-ns#" xmlns:sodipodi="http://sodipodi.sourceforge.net/DTD/sodipodi-0.dtd" xmlns:svg="http://www.w3.org/2000/svg"><defs id="defs4"/><g id="layer1" transform="translate(0,-540.36218)"><path d="m 112.02974,647.24255 c -0.7608,0.7607 -1.4214,1.592 -2.0225,2.4892 -0.2891,0.428 -0.5557,0.8154 -0.8039,1.2706 l -0.077,0.078 c -0.2473,0.4567 -0.4435,0.893 -0.6482,1.3742 l -0.026,0.026 c -0.2093,0.4969 -0.3835,1.0099 -0.5445,1.5299 -0.3257,1.0506 -0.5628,2.1369 -0.6742,3.2672 -0.055,0.5473 0.027,1.123 0.026,1.6855 l -0.052,0.052 c 0,0.287 0.012,0.5723 0.026,0.8557 l 0,82.50924 c -0.032,0.3329 -0.066,0.6775 -0.077,1.0111 -0.1573,4.4335 1.4759,8.9437 4.8748,12.3427 6.497,6.497 16.9956,6.4452 23.4925,-0.052 l 18.6436,-18.6436 c 0.1297,0.1362 0.2291,0.2808 0.3631,0.4148 l 60.624,60.6243 -0.082,0.077 47.7115,47.7111 0.082,-0.078 60.5985,60.5983 c 0.1337,0.134 0.3074,0.2563 0.44,0.389 l -18.6439,18.6436 c -6.4962,6.497 -6.5478,16.9957 -0.047,23.4925 3.3995,3.3988 7.8845,5.006 12.3178,4.849 l 0.2065,0 c 0.2652,-0.013 0.5398,-0.053 0.8038,-0.078 l 83.3916,0.052 c 0.5738,0 1.1524,0 1.7109,-0.052 3.8959,-0.3931 7.4362,-2.1728 10.0612,-4.7711 0.7604,-0.7607 1.4211,-1.5921 2.0219,-2.4893 0.2887,-0.4279 0.5292,-0.8412 0.778,-1.2965 l 0.082,-0.077 c 0.2476,-0.4567 0.4436,-0.893 0.649,-1.3743 l 0.023,-0.026 c 0.2089,-0.4967 0.4096,-0.984 0.5703,-1.5039 0.3251,-1.0507 0.5363,-2.1628 0.6478,-3.293 0.059,-0.5473 0,-1.0972 0,-1.6595 l 0.047,-0.052 c 0,-0.287 0.012,-0.5981 0,-0.8816 l -0.047,-82.509 c 0.035,-0.3331 0.07,-0.6776 0.082,-1.0113 0.1573,-4.4333 -1.4492,-8.9181 -4.8487,-12.3168 -6.4974,-6.4971 -16.9952,-6.445 -23.4926,0.052 l -18.6438,18.6436 c -0.1291,-0.1362 -0.2547,-0.3068 -0.3885,-0.4409 l -60.5983,-60.5983 -47.7116,-47.711 -60.6242,-60.6243 c -0.1338,-0.1339 -0.2816,-0.2301 -0.4142,-0.3629 l 18.6427,-18.6436 c 6.4974,-6.49714 6.549,-16.99574 0.047,-23.49264 -3.3984,-3.3988 -7.9091,-5.0319 -12.3425,-4.8749 l -0.2077,0 c -0.2652,0.013 -0.5386,0.054 -0.8038,0.077 l -83.3641,-0.026 c -0.5744,1e-4 -1.1788,-0.031 -1.7375,0.026 -3.8955,0.393 -7.41,2.1987 -10.0348,4.797 z m -0.026,193.20414 c -3.3988,3.3987 -5.0061,7.8834 -4.8488,12.3166 0.012,0.3339 0.046,0.6784 0.077,1.0113 l -0.052,82.5092 c -0.015,0.2834 0,0.5945 0,0.8815 l 0.052,0.052 c 8e-4,0.5625 -0.055,1.1122 0,1.6595 0.1115,1.1303 0.3224,2.2426 0.6482,3.2932 0.1609,0.52 0.3611,1.0072 0.5704,1.5039 l 0.026,0.026 c 0.2048,0.4814 0.4009,0.9177 0.6483,1.3744 l 0.077,0.077 c 0.2483,0.4553 0.489,0.8685 0.7779,1.2965 0.6012,0.8972 1.2617,1.7286 2.0225,2.4893 2.625,2.5983 6.1653,4.378 10.061,4.7711 0.5585,0.056 1.1368,0.052 1.7113,0.052 l 83.3906,-0.052 c 0.2652,0.025 0.5386,0.066 0.8038,0.077 l 0.2077,0 c 4.4333,0.157 8.9183,-1.4501 12.3166,-4.8488 6.4974,-6.4971 6.4446,-16.9956 -0.047,-23.4926 l -18.6439,-18.6436 c 0.1326,-0.1327 0.3075,-0.255 0.4413,-0.389 l 43.9247,-43.9254 -47.7103,-47.7111 -43.9259,43.9254 c -0.134,0.134 -0.2592,0.3045 -0.3888,0.4408 l -18.6437,-18.6437 c -6.4969,-6.4969 -16.9956,-6.5488 -23.4926,-0.052 z m 193.1785,-193.17824 c -6.4974,6.497 -6.4458,16.9956 0.047,23.49254 l 18.6427,18.6437 c -0.1326,0.1327 -0.2805,0.2291 -0.4142,0.363 l -43.9776,43.9772 47.7115,47.7111 43.9764,-43.9772 c 0.135,-0.134 0.2336,-0.2785 0.3638,-0.4149 l 18.6439,18.6436 c 6.4962,6.497 16.9951,6.5489 23.4926,0.052 3.3983,-3.3988 5.0317,-7.9091 4.8745,-12.3427 -0.012,-0.3336 -0.047,-0.6784 -0.082,-1.0111 l 0,-82.50924 c 0.012,-0.2835 0.024,-0.5687 0.024,-0.8557 l -0.047,-0.052 c 0,-0.5624 0.082,-1.1382 0.023,-1.6855 -0.1056,-1.1303 -0.3485,-2.2166 -0.6747,-3.2671 -0.1608,-0.5201 -0.3344,-1.0332 -0.5445,-1.53 l -0.023,-0.026 c -0.2042,-0.4813 -0.4002,-0.9175 -0.6478,-1.3742 l -0.082,-0.078 c -0.2488,-0.4551 -0.5152,-0.8426 -0.8038,-1.2706 -0.602,-0.8972 -1.2615,-1.7286 -2.0231,-2.4892 -2.625,-2.5983 -6.1395,-4.404 -10.0342,-4.797 -0.5586,-0.056 -1.1629,-0.026 -1.7379,-0.026 l -83.3646,0.026 c -0.2641,-0.025 -0.5387,-0.066 -0.8039,-0.078 l -0.2077,0 c -4.4333,-0.157 -8.944,1.4761 -12.3424,4.8748 z" id="path4166" style="fill:#000000;fill-opacity:1;stroke:none"/></g></svg>