<?xml version="1.0" encoding="UTF-8"?>
<svg width="241px" height="25px" viewBox="0 0 241 25" version="1.1" xmlns="http://www.w3.org/2000/svg" xmlns:xlink="http://www.w3.org/1999/xlink">
    <!-- Generator: Sketch 43.1 (39012) - http://www.bohemiancoding.com/sketch -->
    <title>BJN</title>
    <desc>Created with Sketch.</desc>
    <defs></defs>
    <g id="Page-1" stroke="none" stroke-width="1" fill="none" fill-rule="evenodd">
        <g id="Artboard-Copy-2" transform="translate(-190.000000, -41.000000)" fill="#FFFFFF">
            <g id="BJN" transform="translate(190.000000, 35.000000)">
                <text id="Developers" font-family="ProximaNova-Light, Proxima Nova" font-size="26" font-weight="300" letter-spacing="-0.975000083">
                    <tspan x="120.31" y="26">Developers</tspan>
                </text>
                <g id="BlueJeans_Logo" transform="translate(0.000000, 6.000000)">
                    <g id="Layer_1">
                        <g id="Page-1">
                            <g id="BlueJeans-Logo">
                                <path d="M13.0725686,9.64809979 L13.2611153,9.4914748 C14.6752152,8.36377482 15.366553,6.98547485 15.366553,5.41922488 C15.366553,4.41682491 15.1151575,3.47707493 14.5809419,2.63129994 C14.0467264,1.75419996 13.3553886,1.09637498 12.4755042,0.657824986 C11.5956198,0.219274995 10.4957642,0 9.11308869,0 L0,0 L0,19.8287246 L9.27021091,19.8287246 C10.7157353,19.8287246 11.9098642,19.5781246 12.7897486,19.1082496 C13.7010575,18.6383746 14.4238197,17.9492246 14.9580352,17.0721246 C15.4922508,16.1950247 15.7436463,15.2552747 15.7436463,14.2841997 C15.7436463,12.3420497 14.9266108,10.8384498 13.2925397,9.77339979 L13.0725686,9.64809979 L13.0725686,9.64809979 L13.0725686,9.64809979 Z M3.2995666,2.75659994 L9.14451314,2.75659994 C10.055822,2.75659994 10.7785842,3.00719994 11.3442242,3.53972492 C11.9412886,4.04092491 12.2241086,4.6987499 12.2241086,5.51319988 C12.2241086,6.29632487 11.9412886,6.95414985 11.3756486,7.45534984 C10.8100087,7.98787483 10.0872465,8.23847482 9.17593758,8.23847482 L3.2995666,8.23847482 L3.2995666,2.75659994 L3.2995666,2.75659994 L3.2995666,2.75659994 Z M11.6584686,16.0070747 C11.0614042,16.5395996 10.2443687,16.7901996 9.20736203,16.7901996 L3.2995666,16.7901996 L3.2995666,11.0263998 L9.23878647,11.0263998 C9.96154868,11.0263998 10.5271887,11.1203748 10.9671309,11.3396498 C12.035562,11.8408497 12.5697775,12.6866247 12.5697775,13.8769747 C12.5697775,14.7853997 12.2555331,15.4745497 11.6584686,16.0070747 L11.6584686,16.0070747 L11.6584686,16.0070747 Z M20.7087084,0 L17.5662641,0 L17.5662641,19.7973996 L20.7087084,19.7973996 L20.7087084,0 L20.7087084,0 L20.7087084,0 Z M28.9733372,16.9781496 C27.8734816,16.9781496 27.0564461,16.5395996 26.4593817,15.6624997 C26.2079861,15.2552747 26.0822883,14.6287747 26.0822883,13.7829997 L26.0822883,5.60717488 L22.939844,5.60717488 L22.939844,14.7227497 C22.939844,15.7564747 23.0655417,16.5082746 23.3169373,17.0721246 C23.725455,17.9178996 24.3853684,18.6383746 25.2652528,19.1708996 C26.1137128,19.7034246 27.0564461,19.9853496 28.0306038,19.9853496 C29.3818549,19.9853496 30.5759838,19.5467996 31.5187171,18.6696996 L31.8329615,18.3877746 L31.8329615,19.7973996 L34.9754059,19.7973996 L34.9754059,5.60717488 L31.8329615,5.60717488 L31.8329615,13.5950497 C31.8329615,14.4721497 31.7386882,15.1299747 31.5187171,15.5058747 C31.015926,16.5082746 30.167466,16.9781496 28.9733372,16.9781496 L28.9733372,16.9781496 L28.9733372,16.9781496 Z M46.382479,15.6938247 C45.5025946,16.6022496 44.5284368,17.0094746 43.334308,17.0094746 C42.3287258,17.0094746 41.5116902,16.7275496 40.8832014,16.1636997 C40.223288,15.5998497 39.9090436,14.9420247 39.9090436,14.0649247 L39.9090436,13.7829997 L49.1478301,13.7829997 L49.1478301,11.5589248 C49.1478301,9.80472479 48.5507656,8.33244982 47.3880612,7.17342485 C46.2253568,6.01439987 44.7169835,5.41922488 42.9572146,5.41922488 C41.2602947,5.41922488 39.7833458,5.98307487 38.5577925,7.11077485 C37.3322392,8.23847482 36.7351748,9.6167748 36.7351748,11.2143498 L36.7351748,13.6890247 C36.7351748,15.0986497 37.0808437,16.2889997 37.7721814,17.2600746 C39.0291592,19.0455996 40.8832014,19.9540246 43.3028835,19.9540246 C45.5654435,19.9540246 47.3880612,19.1708996 48.8021612,17.6046496 L48.8650101,17.5419996 L46.4453279,15.5998497 L46.382479,15.6938247 L46.382479,15.6938247 L46.382479,15.6938247 Z M39.940468,10.9324248 C40.0661658,10.1806248 40.3804103,9.5854498 40.8517769,9.11557481 C41.4174169,8.58304982 42.1087547,8.33244982 42.9572146,8.33244982 C43.8056746,8.33244982 44.5284368,8.58304982 45.0940768,9.14689981 C45.6282924,9.6167748 45.9111124,10.2119498 45.9739612,10.9324248 L46.0053857,11.1203748 L39.9090436,11.1203748 L39.940468,10.9324248 L39.940468,10.9324248 L39.940468,10.9324248 Z M47.6080323,21.7395495 L47.513759,21.7395495 L47.513759,21.8335245 C47.513759,23.8383245 47.513759,24.7780745 47.6080323,24.9346995 L47.6394568,24.9346995 C49.9020167,24.9346995 51.7246345,24.0262745 53.10731,22.2407495 C53.95577,21.1130496 54.3642877,19.7034246 54.3642877,17.9805496 L54.3642877,0 L51.0332967,0 L51.0332967,17.5733246 C51.0332967,18.6696996 50.9390234,19.4214996 50.7504767,19.8287246 C50.1534123,21.1130496 49.1478301,21.7395495 47.6080323,21.7395495 L47.6080323,21.7395495 L47.6080323,21.7395495 Z M62.4717942,5.45054988 C60.7748743,5.45054988 59.2979254,6.01439987 58.0723721,7.14209985 C56.8468188,8.26979982 56.2497544,9.64809979 56.2497544,11.2456748 L56.2497544,13.7203497 C56.2497544,15.1299747 56.5954232,16.3203247 57.286761,17.2913996 C58.5437388,19.0769246 60.4292054,19.9853496 62.8174631,19.9853496 C65.0800231,19.9853496 66.9026408,19.2022246 68.3167408,17.6359746 L68.3795897,17.5733246 L65.9599075,15.6311747 L65.8970586,15.6938247 C65.0171742,16.6022496 64.0430164,17.0094746 62.8488875,17.0094746 C61.8433053,17.0094746 61.0262698,16.7275496 60.3977809,16.1636997 C59.7378676,15.5998497 59.4236232,14.9420247 59.4236232,14.0649247 L59.4236232,13.7829997 L68.6624096,13.7829997 L68.6624096,11.5589248 C68.6624096,9.80472479 68.0653452,8.33244982 66.9026408,7.17342485 C65.7399364,6.01439987 64.2629875,5.45054988 62.4717942,5.45054988 L62.4717942,5.45054988 L62.4717942,5.45054988 Z M59.3921987,11.1516998 L59.4236232,10.9324248 C59.549321,10.1806248 59.8635654,9.5854498 60.334932,9.11557481 C60.900572,8.58304982 61.5919098,8.33244982 62.4717942,8.33244982 C63.3202542,8.33244982 64.0430164,8.58304982 64.6086564,9.14689981 C65.1428719,9.6167748 65.4256919,10.2119498 65.4885408,10.9324248 L65.5199653,11.1203748 L59.3921987,11.1516998 L59.3921987,11.1516998 L59.3921987,11.1516998 Z M80.0694827,6.64089986 C79.095325,5.85777488 77.6183761,5.45054988 75.6700606,5.45054988 C73.1246807,5.45054988 71.3963363,6.13969987 70.4536029,7.45534984 L70.3907541,7.51799984 L72.8732851,9.3974998 L72.936134,9.3035248 C73.1875296,8.86497481 73.5646229,8.61437482 74.0988384,8.48907482 C74.3816584,8.42642482 74.8844495,8.36377482 75.6386362,8.36377482 C76.832765,8.36377482 77.6183761,8.55172482 78.0583183,8.89629981 C78.3097139,9.11557481 78.4668361,9.5854498 78.4668361,10.2745998 L78.4668361,11.2456748 L74.633054,11.2456748 C73.5960473,11.2456748 72.7790118,11.3709748 72.1819474,11.6528998 C71.3963363,11.9974747 70.7678474,12.5613247 70.2650563,13.2504747 C69.7622652,13.9709497 69.5422941,14.7227497 69.5422941,15.5685247 C69.5422941,16.8528496 70.0450852,17.9178996 71.0820918,18.7636746 C72.087674,19.5781246 73.4075007,19.9853496 75.0101473,19.9853496 C76.3613984,19.9853496 77.4298295,19.6407746 78.1211672,18.9829496 L78.4354117,18.6696996 L78.4354117,19.7973996 L81.6092805,19.7973996 L81.6092805,9.96134979 C81.6407049,8.61437482 81.1064894,7.48667484 80.0694827,6.64089986 L80.0694827,6.64089986 L80.0694827,6.64089986 Z M78.4668361,14.8793747 C78.4668361,15.9130997 78.3097139,16.2263497 78.1840161,16.3829747 C77.8383472,16.9154996 76.9584628,17.1660996 75.4815139,17.1660996 C73.5331984,17.1660996 72.5590407,16.5709246 72.5590407,15.4118997 C72.5590407,14.7540747 72.8418607,14.2528747 73.4075007,13.9709497 C73.6588962,13.8456497 74.0988384,13.7829997 74.6959029,13.7829997 L78.4668361,13.7829997 L78.4668361,14.8793747 L78.4668361,14.8793747 L78.4668361,14.8793747 Z M90.9737647,5.45054988 C89.5910892,5.45054988 88.3969603,5.85777488 87.454227,6.70354986 L87.1399826,6.98547485 L87.1399826,5.63849988 L83.9661138,5.63849988 L83.9661138,19.8287246 L87.1399826,19.8287246 L87.1399826,11.0577248 C87.1399826,10.3685748 87.4228026,9.74207479 88.019867,9.2095498 C88.6169314,8.64569982 89.2768448,8.39509982 90.0310314,8.39509982 C90.8166425,8.39509982 91.4451314,8.64569982 92.0107714,9.2095498 C92.5764114,9.74207479 92.8592314,10.3685748 92.8592314,11.0890498 L92.8592314,19.8287246 L96.0016757,19.8287246 L96.0016757,10.3059248 C96.0016757,8.95894981 95.4988846,7.79992483 94.5247269,6.86017485 C93.5819936,5.92042487 92.3878647,5.45054988 90.9737647,5.45054988 L90.9737647,5.45054988 L90.9737647,5.45054988 Z M107.62872,11.7155498 C106.937382,11.3396498 105.523282,11.1516998 103.354996,11.0890498 C101.97232,11.0577248 101.312407,10.6191748 101.312407,9.80472479 C101.312407,8.86497481 102.035169,8.42642482 103.543542,8.42642482 C105.146189,8.42642482 106.528864,8.86497481 107.62872,9.71074979 L107.691569,9.77339979 L109.639884,7.33004984 L109.577035,7.26739985 C107.848691,6.04572487 105.868951,5.45054988 103.66924,5.45054988 C102.066593,5.45054988 100.778191,5.79512488 99.8668823,6.48427486 C98.7041779,7.33004984 98.1071135,8.48907482 98.1071135,9.83604979 C98.1071135,11.4022998 98.8298757,12.5926497 100.243976,13.3757747 C100.778191,13.6890247 101.438105,13.8769747 102.25514,13.9709497 C102.726507,14.0335997 103.449269,14.0649247 104.360578,14.0962497 C105.271887,14.1275747 105.900376,14.2215497 106.277469,14.4408247 C106.623138,14.6287747 106.811684,14.9733497 106.811684,15.4432247 C106.811684,16.5082746 105.806102,17.0094746 103.794938,17.0094746 C102.098018,17.0094746 100.652493,16.4769496 99.4583645,15.3805747 L99.3955157,15.3179247 L97.1329557,17.4480246 L97.1958046,17.5106746 C98.8613001,19.1395746 101.092436,19.9853496 103.794938,19.9853496 C105.64898,19.9853496 107.125929,19.5781246 108.257209,18.7636746 C109.388489,17.9178996 109.954129,16.8215246 109.954129,15.4745497 C109.985553,13.7829997 109.199942,12.5299997 107.62872,11.7155498 L107.62872,11.7155498 L107.62872,11.7155498 Z" id="Shape"></path>
                            </g>
                        </g>
                    </g>
                </g>
            </g>
        </g>
    </g>
</svg>